<mxfile host="app.diagrams.net" modified="2023-09-21T11:13:24.765Z" agent="Mozilla/5.0 (Windows NT 10.0; Win64; x64; rv:104.0) Gecko/20100101 Firefox/104.0" version="21.8.0" etag="CXjR40mPmG-y8L3tuKNs" type="github">
  <diagram name="Page-1" id="TIFUfAG9xjGSMD21AEsr">
    <mxGraphModel>
      <root>
        <mxCell id="0" />
        <mxCell id="1" parent="0" />
      </root>
    </mxGraphModel>
  </diagram>
</mxfile>
